<svg width="160" height="129" viewBox="0 0 160 129" fill="none" xmlns="http://www.w3.org/2000/svg">
<g filter="url(#filter0_d_625_950)">
<path d="M120.427 31H41.5463C37.2512 31 33.7189 34.3845 33.5356 38.6757L31.3573 89.6475C31.1625 94.2059 34.8054 98.0079 39.368 98.0079H91.8018C93.7702 98.0079 95.6697 97.2838 97.1387 95.9737L124.173 71.8624C125.755 70.4509 126.714 68.4699 126.84 66.3529L128.431 39.4923C128.704 34.8857 125.042 31 120.427 31Z" fill="#00A3FF" fill-opacity="0.01" shape-rendering="crispEdges"/>
<path d="M120.427 31H41.5463C37.2512 31 33.7189 34.3845 33.5356 38.6757L31.3573 89.6475C31.1625 94.2059 34.8054 98.0079 39.368 98.0079H91.8018C93.7702 98.0079 95.6697 97.2838 97.1387 95.9737L124.173 71.8624C125.755 70.4509 126.714 68.4699 126.84 66.3529L128.431 39.4923C128.704 34.8857 125.042 31 120.427 31Z" stroke="#92EBFF" stroke-opacity="0.01" stroke-width="1.115" shape-rendering="crispEdges"/>
</g>
<defs>
<filter id="filter0_d_625_950" x="0.792969" y="0.442505" width="158.211" height="128.123" filterUnits="userSpaceOnUse" color-interpolation-filters="sRGB">
<feFlood flood-opacity="0" result="BackgroundImageFix"/>
<feColorMatrix in="SourceAlpha" type="matrix" values="0 0 0 0 0 0 0 0 0 0 0 0 0 0 0 0 0 0 127 0" result="hardAlpha"/>
<feOffset/>
<feGaussianBlur stdDeviation="15"/>
<feComposite in2="hardAlpha" operator="out"/>
<feColorMatrix type="matrix" values="0 0 0 0 0.0799999 0 0 0 0 0 0 0 0 0 1 0 0 0 1 0"/>
<feBlend mode="normal" in2="BackgroundImageFix" result="effect1_dropShadow_625_950"/>
<feBlend mode="normal" in="SourceGraphic" in2="effect1_dropShadow_625_950" result="shape"/>
</filter>
</defs>
</svg>
