<svg width="298" height="84" viewBox="0 0 298 84" fill="none" xmlns="http://www.w3.org/2000/svg">
<g filter="url(#filter0_f_631_229)">
<path d="M22.8264 18.1814H266.173C271.359 18.1814 275.634 22.2458 275.897 27.4247L278.074 70.3784C278.357 75.942 273.922 80.6076 268.351 80.6076H21.7376C16.2638 80.6076 11.8658 76.0967 12.0045 70.6247L13.0933 27.6709C13.2271 22.3915 17.5453 18.1814 22.8264 18.1814Z" stroke="white" stroke-opacity="0.3" stroke-width="1.14543"/>
</g>
<path d="M13.7683 6.7272H274.551C279.736 6.7272 284.012 10.7907 284.275 15.969L286.663 62.9317C286.946 68.4959 282.511 73.1623 276.939 73.1623H12.5743C7.10028 73.1623 2.70216 68.651 2.84128 63.1787L4.03525 16.2159C4.16947 10.9369 8.48754 6.7272 13.7683 6.7272Z" stroke="url(#paint0_linear_631_229)" stroke-width="1.14543"/>
<path d="M13.7683 6.7272H274.551C279.736 6.7272 284.012 10.7907 284.275 15.969L286.663 62.9317C286.946 68.4959 282.511 73.1623 276.939 73.1623H12.5743C7.10028 73.1623 2.70216 68.651 2.84128 63.1787L4.03525 16.2159C4.16947 10.9369 8.48754 6.7272 13.7683 6.7272Z" stroke="url(#paint1_linear_631_229)" stroke-width="1.14543"/>
<path d="M13.7683 6.7272H274.551C279.736 6.7272 284.012 10.7907 284.275 15.969L286.663 62.9317C286.946 68.4959 282.511 73.1623 276.939 73.1623H12.5743C7.10028 73.1623 2.70216 68.651 2.84128 63.1787L4.03525 16.2159C4.16947 10.9369 8.48754 6.7272 13.7683 6.7272Z" stroke="white" stroke-opacity="0.2" stroke-width="1.14543"/>
<path d="M5.7124 18.4777C5.86224 12.894 10.4319 8.44537 16.0176 8.44537H272.343C277.822 8.44537 282.344 12.7309 282.637 18.2018L284.912 60.5828C285.229 66.4849 280.529 71.4442 274.618 71.4442H14.8803C9.07851 71.4442 4.41944 66.6585 4.57508 60.8588L5.7124 18.4777Z" fill="#E6B0FF" fill-opacity="0.03"/>
<path d="M5.7124 18.4777C5.86224 12.894 10.4319 8.44537 16.0176 8.44537H272.343C277.822 8.44537 282.344 12.7309 282.637 18.2018L284.912 60.5828C285.229 66.4849 280.529 71.4442 274.618 71.4442H14.8803C9.07851 71.4442 4.41944 66.6585 4.57508 60.8588L5.7124 18.4777Z" fill="url(#paint2_linear_631_229)"/>
<path d="M92.5719 6.15448H13.6908C9.39573 6.15448 5.86348 9.539 5.68009 13.8302L3.50181 64.802C3.30701 69.3604 6.94997 73.1623 11.5125 73.1623H63.9463C65.9147 73.1623 67.8143 72.4383 69.2832 71.1281L96.3171 47.0169C97.8997 45.6054 98.8587 43.6243 98.9841 41.5074L100.576 14.6468C100.849 10.0402 97.1866 6.15448 92.5719 6.15448Z" stroke="white" stroke-opacity="0.4" stroke-width="1.14543"/>
<g filter="url(#filter1_f_631_229)">
<path d="M91.9996 3.29083H13.1186C8.82346 3.29083 5.29121 6.67535 5.10783 10.9665L2.92955 61.9383C2.73474 66.4967 6.3777 70.2987 10.9403 70.2987H63.3741C65.3424 70.2987 67.242 69.5747 68.711 68.2645L95.7448 44.1533C97.3274 42.7417 98.2864 40.7607 98.4119 38.6437L100.004 11.7832C100.277 7.17653 96.6143 3.29083 91.9996 3.29083Z" stroke="#1400FF" stroke-width="1.14543"/>
</g>
<path d="M91.9996 1H13.1186C8.82346 1 5.29121 4.38452 5.10783 8.67569L2.92955 59.6475C2.73474 64.2059 6.3777 68.0079 10.9403 68.0079H63.3741C65.3424 68.0079 67.242 67.2838 68.711 65.9737L95.7448 41.8624C97.3274 40.4509 98.2864 38.4699 98.4119 36.3529L100.004 9.49235C100.277 4.88569 96.6143 1 91.9996 1Z" fill="url(#paint3_linear_631_229)" stroke="#92EBFF" stroke-width="1.14543"/>
<path d="M98.2159 39.0856L99.075 22.1904L47.2441 67.4351H66.4302L98.2159 39.0856Z" fill="url(#paint4_linear_631_229)"/>
<g filter="url(#filter2_f_631_229)">
<path d="M94.9528 55.1219L82.2295 66.136C81.0266 67.1773 81.7631 69.1532 83.354 69.1532H95.6975C96.6234 69.1532 97.3827 68.4196 97.4146 67.4943L97.7944 56.4801C97.8461 54.9811 96.0868 54.1402 94.9528 55.1219Z" stroke="#1400FF" stroke-opacity="0.6" stroke-width="1.14543"/>
</g>
<path d="M94.9528 52.831L82.2295 63.8452C81.0266 64.8865 81.7631 66.8624 83.354 66.8624H95.6975C96.6234 66.8624 97.3827 66.1288 97.4146 65.2035L97.7944 54.1893C97.8461 52.6902 96.0868 51.8493 94.9528 52.831Z" stroke="#69D8FF" stroke-width="1.14543"/>
<g filter="url(#filter3_d_631_229)">
<path d="M151.731 25.6077L154.994 17.2666L155.145 16.624H156.796L153.532 24.9903L153.381 25.6077H151.731ZM158.564 25.6077L161.828 17.2666L161.979 16.624H163.63L160.366 24.9903L160.215 25.6077H158.564ZM165.398 25.6077L168.662 17.2666L168.813 16.624H170.463L167.2 24.9903L167.049 25.6077H165.398ZM172.232 25.6077L175.496 17.2666L175.647 16.624H177.297L174.034 24.9903L173.883 25.6077H172.232Z" fill="#7DD0FF"/>
</g>
<g filter="url(#filter4_f_631_229)">
<path d="M288.359 28.4904L289.692 65.3446C289.902 71.1802 285.229 76.0259 279.389 76.0259H236.242" stroke="url(#paint5_linear_631_229)" stroke-opacity="0.2" stroke-width="1.14543"/>
</g>
<g filter="url(#filter5_f_631_229)">
<path d="M288.359 28.4904L289.692 65.3446C289.902 71.1802 285.229 76.0259 279.389 76.0259H236.242" stroke="url(#paint6_linear_631_229)" stroke-opacity="0.2" stroke-width="1.14543"/>
</g>
<g filter="url(#filter6_f_631_229)">
<path d="M288.359 28.4904L289.692 65.3446C289.902 71.1802 285.229 76.0259 279.389 76.0259H236.242" stroke="url(#paint7_linear_631_229)" stroke-opacity="0.2" stroke-width="1.14543"/>
</g>
<path d="M288.359 28.4904L289.692 65.3446C289.902 71.1802 285.229 76.0259 279.389 76.0259H236.242" stroke="url(#paint8_linear_631_229)" stroke-opacity="0.7" stroke-width="1.14543"/>
<g filter="url(#filter7_f_631_229)">
<path d="M32.0824 49.4524H31.7479C28.199 49.4524 25.5233 47.0904 26.0714 44.4941C26.9354 40.3982 29.1791 37.3427 33.7129 36.4429C31.1812 35.3181 29.4067 32.7734 29.4067 29.8022C29.4067 25.7953 32.6259 22.5476 36.6023 22.5476C36.9646 22.5476 37.313 22.6039 37.666 22.6554C36.8996 24.216 36.4257 25.9547 36.4257 27.8152C36.4257 30.8848 37.6196 33.7669 39.6449 35.9039C35.715 37.905 33.1694 41.5464 32.0592 46.7764C31.8687 47.6762 31.8966 48.5807 32.0824 49.4524V49.4524ZM69.9275 44.4988C69.0588 40.4029 66.8198 37.3473 62.286 36.4476C64.8177 35.3228 66.5922 32.7781 66.5922 29.8069C66.5922 25.8 63.373 22.5523 59.4013 22.5523C59.0622 22.5523 58.7323 22.6085 58.4072 22.6554C59.1783 24.2207 59.6475 25.9593 59.6475 27.8245C59.6475 30.941 58.4258 33.856 56.3447 36.0023C60.1445 38.0316 62.7319 41.6448 63.9072 46.6546C64.1302 47.5919 64.1255 48.5385 63.9304 49.4571H64.2556C67.8046 49.4524 70.4802 47.0904 69.9275 44.4988V44.4988ZM54.3751 53C56.8371 53 59.1225 52.0346 60.3396 50.4834C60.8738 49.8039 61.4405 48.7072 61.1154 47.3201C59.8147 41.7666 56.628 38.4159 51.6483 37.3661L49.2931 36.8693L51.4997 35.9039C54.7049 34.5074 56.772 31.3347 56.772 27.8152C56.772 22.9553 52.8514 19 48.0343 19C43.2171 19 39.2965 22.9553 39.2965 27.8152C39.2965 31.3065 41.3497 34.4746 44.5317 35.8805L46.7615 36.8693L44.3692 37.3427C39.1897 38.369 36.0866 41.6495 34.8742 47.381C34.5816 48.7635 35.1622 49.8554 35.7011 50.5256C36.9414 52.0721 39.1572 52.9953 41.6238 52.9953H54.3751V53Z" fill="#2400FF" fill-opacity="0.6"/>
</g>
<path d="M24.6318 42.6124L24.6318 42.6124C25.0497 40.6314 25.7925 38.9443 26.9438 37.6507C28.0892 36.3638 29.6685 35.4325 31.8244 35.0046L33.5964 34.6529L31.9454 33.9195C29.6136 32.8835 27.9794 30.5394 27.9794 27.8022C27.9794 24.1071 30.9467 21.1203 34.6023 21.1203C34.6757 21.1203 34.7485 21.123 34.8218 21.1278C34.2173 22.5662 33.853 24.1414 33.853 25.8152C33.853 28.7764 34.9125 31.5715 36.7362 33.7452C32.991 35.902 30.5758 39.5845 29.4989 44.6575L29.4989 44.6578C29.3411 45.4034 29.3207 46.1477 29.4062 46.8717C27.9005 46.8017 26.6137 46.2725 25.7507 45.5162C24.827 44.7066 24.4094 43.6658 24.6318 42.6124ZM60.0535 33.9242L58.4025 34.6576L60.1745 35.0093C62.3303 35.4372 63.9084 36.3684 65.0532 37.6553C66.2041 38.949 66.947 40.6363 67.3672 42.6176L67.9275 42.4988L67.3673 42.6183C67.5914 43.6686 67.1754 44.7078 66.2521 45.5174C65.391 46.2725 64.107 46.8022 62.6043 46.8756C62.6914 46.1004 62.6516 45.3095 62.4646 44.5231C61.3246 39.6644 58.8724 36.0321 55.2515 33.8581C57.1318 31.6696 58.2202 28.8362 58.2202 25.8245C58.2202 24.1474 57.8596 22.5714 57.2526 21.129C57.3022 21.1264 57.3516 21.125 57.4013 21.125C61.0519 21.125 64.0194 24.1115 64.0194 27.8069C64.0194 30.5441 62.3853 32.8882 60.0535 33.9242ZM57.8894 48.1294L57.889 48.1299C56.8517 49.4519 54.8809 50.3505 52.6635 50.4226H52.3751H39.6238C37.2841 50.4226 35.2532 49.5455 34.1479 48.1673L34.1474 48.1667C33.6664 47.5685 33.1912 46.649 33.4345 45.4996L33.4345 45.4995C34.0251 42.7078 35.0659 40.56 36.5501 38.9909C38.0306 37.4257 39.988 36.3983 42.4805 35.9045L44.8726 35.4312L46.0641 35.1954L47.1749 35.4297L49.5301 35.9265L49.5302 35.9265C51.919 36.4301 53.853 37.4785 55.3465 39.0489C56.8431 40.6225 57.9251 42.7497 58.5577 45.4507L58.5578 45.4508C58.8279 46.6031 58.3658 47.5234 57.8894 48.1294ZM47.0636 34.3446L46.0203 34.8011L44.9937 34.3458L42.7639 33.357L42.7632 33.3566C39.7901 32.043 37.8692 29.0814 37.8692 25.8152C37.8692 21.2669 41.5382 17.5727 46.0343 17.5727C50.5304 17.5727 54.1993 21.2669 54.1993 25.8152C54.1993 29.109 52.2653 32.0742 49.2709 33.3789L49.2701 33.3792L47.0636 34.3446Z" fill="#0094FF" fill-opacity="0.6" stroke="#64E3FF" stroke-width="1.14543"/>
<defs>
<filter id="filter0_f_631_229" x="9.70958" y="15.8906" width="270.669" height="67.0079" filterUnits="userSpaceOnUse" color-interpolation-filters="sRGB">
<feFlood flood-opacity="0" result="BackgroundImageFix"/>
<feBlend mode="normal" in="SourceGraphic" in2="BackgroundImageFix" result="shape"/>
<feGaussianBlur stdDeviation="0.859075" result="effect1_foregroundBlur_631_229"/>
</filter>
<filter id="filter1_f_631_229" x="0.631459" y="0.999989" width="101.677" height="71.5896" filterUnits="userSpaceOnUse" color-interpolation-filters="sRGB">
<feFlood flood-opacity="0" result="BackgroundImageFix"/>
<feBlend mode="normal" in="SourceGraphic" in2="BackgroundImageFix" result="shape"/>
<feGaussianBlur stdDeviation="0.859075" result="effect1_foregroundBlur_631_229"/>
</filter>
<filter id="filter2_f_631_229" x="79.9132" y="52.9796" width="19.6014" height="17.8918" filterUnits="userSpaceOnUse" color-interpolation-filters="sRGB">
<feFlood flood-opacity="0" result="BackgroundImageFix"/>
<feBlend mode="normal" in="SourceGraphic" in2="BackgroundImageFix" result="shape"/>
<feGaussianBlur stdDeviation="0.572717" result="effect1_foregroundBlur_631_229"/>
</filter>
<filter id="filter3_d_631_229" x="151.73" y="16.624" width="29.0027" height="11.8472" filterUnits="userSpaceOnUse" color-interpolation-filters="sRGB">
<feFlood flood-opacity="0" result="BackgroundImageFix"/>
<feColorMatrix in="SourceAlpha" type="matrix" values="0 0 0 0 0 0 0 0 0 0 0 0 0 0 0 0 0 0 127 0" result="hardAlpha"/>
<feOffset dx="2.29087" dy="1.71815"/>
<feGaussianBlur stdDeviation="0.572717"/>
<feComposite in2="hardAlpha" operator="out"/>
<feColorMatrix type="matrix" values="0 0 0 0 0.0784314 0 0 0 0 0 0 0 0 0 1 0 0 0 0.7 0"/>
<feBlend mode="normal" in2="BackgroundImageFix" result="effect1_dropShadow_631_229"/>
<feBlend mode="normal" in="SourceGraphic" in2="effect1_dropShadow_631_229" result="shape"/>
</filter>
<filter id="filter4_f_631_229" x="233.951" y="26.1788" width="58.611" height="52.7106" filterUnits="userSpaceOnUse" color-interpolation-filters="sRGB">
<feFlood flood-opacity="0" result="BackgroundImageFix"/>
<feBlend mode="normal" in="SourceGraphic" in2="BackgroundImageFix" result="shape"/>
<feGaussianBlur stdDeviation="1.14543" result="effect1_foregroundBlur_631_229"/>
</filter>
<filter id="filter5_f_631_229" x="231.66" y="23.8879" width="63.1928" height="57.2924" filterUnits="userSpaceOnUse" color-interpolation-filters="sRGB">
<feFlood flood-opacity="0" result="BackgroundImageFix"/>
<feBlend mode="normal" in="SourceGraphic" in2="BackgroundImageFix" result="shape"/>
<feGaussianBlur stdDeviation="2.29087" result="effect1_foregroundBlur_631_229"/>
</filter>
<filter id="filter6_f_631_229" x="229.37" y="21.5971" width="67.7745" height="61.8741" filterUnits="userSpaceOnUse" color-interpolation-filters="sRGB">
<feFlood flood-opacity="0" result="BackgroundImageFix"/>
<feBlend mode="normal" in="SourceGraphic" in2="BackgroundImageFix" result="shape"/>
<feGaussianBlur stdDeviation="3.4363" result="effect1_foregroundBlur_631_229"/>
</filter>
<filter id="filter7_f_631_229" x="23.7091" y="16.7091" width="48.5817" height="38.5817" filterUnits="userSpaceOnUse" color-interpolation-filters="sRGB">
<feFlood flood-opacity="0" result="BackgroundImageFix"/>
<feBlend mode="normal" in="SourceGraphic" in2="BackgroundImageFix" result="shape"/>
<feGaussianBlur stdDeviation="1.14543" result="effect1_foregroundBlur_631_229"/>
</filter>
<linearGradient id="paint0_linear_631_229" x1="271.177" y1="35.363" x2="287.786" y2="72.0169" gradientUnits="userSpaceOnUse">
<stop offset="0.234943" stop-color="white" stop-opacity="0"/>
<stop offset="1" stop-color="white"/>
</linearGradient>
<linearGradient id="paint1_linear_631_229" x1="28.345" y1="27.345" x2="10.3044" y2="10.4499" gradientUnits="userSpaceOnUse">
<stop offset="0.234943" stop-color="white" stop-opacity="0"/>
<stop offset="1" stop-color="white"/>
</linearGradient>
<linearGradient id="paint2_linear_631_229" x1="285.495" y1="71.4442" x2="258.864" y2="3.57728" gradientUnits="userSpaceOnUse">
<stop stop-color="#5200FF" stop-opacity="0.24"/>
<stop offset="1" stop-color="#5200FF" stop-opacity="0"/>
</linearGradient>
<linearGradient id="paint3_linear_631_229" x1="2.57227" y1="1" x2="156.06" y2="50.54" gradientUnits="userSpaceOnUse">
<stop stop-color="#00A3FF" stop-opacity="0.51"/>
<stop offset="1" stop-opacity="0.17"/>
</linearGradient>
<linearGradient id="paint4_linear_631_229" x1="52.3986" y1="47.9627" x2="98.7887" y2="47.9627" gradientUnits="userSpaceOnUse">
<stop stop-color="#00A3FF" stop-opacity="0.5"/>
<stop offset="0.701214" stop-color="#0D1C9F" stop-opacity="0"/>
</linearGradient>
<linearGradient id="paint5_linear_631_229" x1="324.304" y1="113.274" x2="255.512" y2="38.434" gradientUnits="userSpaceOnUse">
<stop offset="0.598507" stop-color="#0500FF"/>
<stop offset="1" stop-color="#0E1638" stop-opacity="0"/>
</linearGradient>
<linearGradient id="paint6_linear_631_229" x1="324.304" y1="113.274" x2="255.512" y2="38.434" gradientUnits="userSpaceOnUse">
<stop offset="0.598507" stop-color="#0500FF"/>
<stop offset="1" stop-color="#0E1638" stop-opacity="0"/>
</linearGradient>
<linearGradient id="paint7_linear_631_229" x1="324.304" y1="113.274" x2="255.512" y2="38.434" gradientUnits="userSpaceOnUse">
<stop offset="0.598507" stop-color="#0500FF"/>
<stop offset="1" stop-color="#0E1638" stop-opacity="0"/>
</linearGradient>
<linearGradient id="paint8_linear_631_229" x1="324.304" y1="113.274" x2="255.512" y2="38.434" gradientUnits="userSpaceOnUse">
<stop offset="0.598507" stop-color="#0047FF"/>
<stop offset="1" stop-color="#0E1638" stop-opacity="0"/>
</linearGradient>
</defs>
</svg>
