<svg width="61" height="61" viewBox="0 0 61 61" fill="none" xmlns="http://www.w3.org/2000/svg">
<g filter="url(#filter0_dd_254_131)">
<path fill-rule="evenodd" clip-rule="evenodd" d="M29.206 16.0226C29.987 15.2415 31.2533 15.2415 32.0344 16.0226L44.9231 28.9113C45.7042 29.6923 45.7042 30.9587 44.9231 31.7397L32.0344 44.6284C31.2533 45.4095 29.987 45.4095 29.206 44.6284L16.3172 31.7397C15.5362 30.9587 15.5362 29.6923 16.3172 28.9113L29.206 16.0226ZM28.7369 24.7205C28.7035 24.1463 29.1601 23.6624 29.7352 23.6624H31.5051C32.0802 23.6624 32.5369 24.1463 32.5034 24.7205L32.0929 31.7676C32.0621 32.2964 31.6243 32.7094 31.0946 32.7094H30.1458C29.6161 32.7094 29.1783 32.2964 29.1475 31.7676L28.7369 24.7205ZM30.6211 36.9885C31.4196 36.9885 32.0669 36.3412 32.0669 35.5427C32.0669 34.7442 31.4196 34.0969 30.6211 34.0969C29.8226 34.0969 29.1753 34.7442 29.1753 35.5427C29.1753 36.3412 29.8226 36.9885 30.6211 36.9885Z" fill="#C2F7FE"/>
</g>
<defs>
<filter id="filter0_dd_254_131" x="0.731445" y="0.436768" width="59.7773" height="59.7775" filterUnits="userSpaceOnUse" color-interpolation-filters="sRGB">
<feFlood flood-opacity="0" result="BackgroundImageFix"/>
<feColorMatrix in="SourceAlpha" type="matrix" values="0 0 0 0 0 0 0 0 0 0 0 0 0 0 0 0 0 0 127 0" result="hardAlpha"/>
<feOffset/>
<feGaussianBlur stdDeviation="3"/>
<feComposite in2="hardAlpha" operator="out"/>
<feColorMatrix type="matrix" values="0 0 0 0 0.0980392 0 0 0 0 0.839216 0 0 0 0 1 0 0 0 1 0"/>
<feBlend mode="normal" in2="BackgroundImageFix" result="effect1_dropShadow_254_131"/>
<feColorMatrix in="SourceAlpha" type="matrix" values="0 0 0 0 0 0 0 0 0 0 0 0 0 0 0 0 0 0 127 0" result="hardAlpha"/>
<feOffset/>
<feGaussianBlur stdDeviation="7.5"/>
<feComposite in2="hardAlpha" operator="out"/>
<feColorMatrix type="matrix" values="0 0 0 0 0.0980392 0 0 0 0 0.839216 0 0 0 0 1 0 0 0 1 0"/>
<feBlend mode="normal" in2="effect1_dropShadow_254_131" result="effect2_dropShadow_254_131"/>
<feBlend mode="normal" in="SourceGraphic" in2="effect2_dropShadow_254_131" result="shape"/>
</filter>
</defs>
</svg>
