<svg width="45" height="45" viewBox="0 0 45 45" fill="none" xmlns="http://www.w3.org/2000/svg">
<g filter="url(#filter0_d_254_113)">
<path fill-rule="evenodd" clip-rule="evenodd" d="M10.6299 11.1863C10.6299 10.634 11.0776 10.1863 11.6299 10.1863H33.9081C34.4604 10.1863 34.9081 10.634 34.9081 11.1863V33.4645C34.9081 34.0168 34.4604 34.4645 33.9081 34.4645H11.6299C11.0776 34.4645 10.6299 34.0168 10.6299 33.4645V11.1863ZM11.9821 12.6029C11.9821 12.0506 12.4298 11.6029 12.9821 11.6029H18.0463C18.9372 11.6029 19.3834 12.6801 18.7534 13.31L13.6892 18.3743C13.0592 19.0042 11.9821 18.5581 11.9821 17.6671V12.6029ZM32.4017 32.9922C32.954 32.9922 33.4017 32.5444 33.4017 31.9922V26.9279C33.4017 26.037 32.3246 25.5908 31.6946 26.2208L26.6304 31.285C26.0004 31.915 26.4466 32.9922 27.3375 32.9922H32.4017ZM20.8859 16.7205C20.8524 16.1463 21.309 15.6624 21.8842 15.6624H23.654C24.2292 15.6624 24.6858 16.1463 24.6523 16.7205L24.2418 23.7676C24.211 24.2964 23.7732 24.7094 23.2435 24.7094H22.2947C21.765 24.7094 21.3272 24.2964 21.2964 23.7676L20.8859 16.7205ZM22.77 28.9885C23.5685 28.9885 24.2158 28.3412 24.2158 27.5427C24.2158 26.7442 23.5685 26.0969 22.77 26.0969C21.9715 26.0969 21.3242 26.7442 21.3242 27.5427C21.3242 28.3412 21.9715 28.9885 22.77 28.9885Z" fill="#C2F7FE"/>
</g>
<defs>
<filter id="filter0_d_254_113" x="0.629883" y="0.186279" width="44.2783" height="44.2782" filterUnits="userSpaceOnUse" color-interpolation-filters="sRGB">
<feFlood flood-opacity="0" result="BackgroundImageFix"/>
<feColorMatrix in="SourceAlpha" type="matrix" values="0 0 0 0 0 0 0 0 0 0 0 0 0 0 0 0 0 0 127 0" result="hardAlpha"/>
<feOffset/>
<feGaussianBlur stdDeviation="5"/>
<feComposite in2="hardAlpha" operator="out"/>
<feColorMatrix type="matrix" values="0 0 0 0 0.0980392 0 0 0 0 0.839216 0 0 0 0 1 0 0 0 1 0"/>
<feBlend mode="normal" in2="BackgroundImageFix" result="effect1_dropShadow_254_113"/>
<feBlend mode="normal" in="SourceGraphic" in2="effect1_dropShadow_254_113" result="shape"/>
</filter>
</defs>
</svg>
